<?xml version="1.0" encoding="UTF-8" standalone="no"?>
<!-- Created with Inkscape (http://www.inkscape.org/) -->

<svg
   version="1.1"
   id="svg1"
   width="5120"
   height="2880"
   viewBox="0 0 5120 2880"
   sodipodi:docname="Logotype (White).svg"
   inkscape:version="1.4.3 (0d15f75, 2025-12-25)"
   xmlns:inkscape="http://www.inkscape.org/namespaces/inkscape"
   xmlns:sodipodi="http://sodipodi.sourceforge.net/DTD/sodipodi-0.dtd"
   xmlns="http://www.w3.org/2000/svg"
   xmlns:svg="http://www.w3.org/2000/svg">
  <defs
     id="defs1" />
  <sodipodi:namedview
     id="namedview1"
     pagecolor="#505050"
     bordercolor="#ffffff"
     borderopacity="1"
     inkscape:showpageshadow="0"
     inkscape:pageopacity="0"
     inkscape:pagecheckerboard="1"
     inkscape:deskcolor="#505050"
     inkscape:zoom="0.28020833"
     inkscape:cx="2558.8104"
     inkscape:cy="1440"
     inkscape:window-width="1920"
     inkscape:window-height="1009"
     inkscape:window-x="-8"
     inkscape:window-y="-8"
     inkscape:window-maximized="1"
     inkscape:current-layer="g1" />
  <g
     inkscape:groupmode="layer"
     inkscape:label="Image"
     id="g1">
    <path
       style="fill:#ffffff;fill-opacity:1"
       d="m 3525.3333,1527.3333 v -252.6666 h 39.2729 39.273 l 0.727,4.3333 c 0.8239,4.9101 4.7271,42.9309 4.7271,46.0458 0,1.1189 2.3132,-1.5087 5.1405,-5.8391 10.736,-16.4437 24.3481,-28.5557 42.1922,-37.5424 23.7313,-11.9517 43.3314,-16.3713 72.6673,-16.3859 30.6332,-0.015 51.165,4.6936 75.9076,17.4089 40.2292,20.674 67.9898,59.0731 79.3505,109.7593 7.9249,35.3573 6.5654,82.4489 -3.4087,118.0695 -16.2717,58.1114 -55.7244,99.9746 -106.779,113.3029 -38.9284,10.1627 -91.8156,4.8919 -122.4037,-12.1987 -13.945,-7.7916 -29.2377,-21.2082 -38.3215,-33.6203 l -2.9274,-4 -0.042,103 -0.042,103 H 3568 3525.3333 Z m 206.9129,22.6626 c 33.2952,-6.8411 57.5633,-31.9991 68.1629,-70.6626 2.4438,-8.9142 2.9242,-14.1715 2.9242,-32 0,-25.2994 -2.3687,-36.1314 -12.1933,-55.7594 -12.0036,-23.9813 -35.575,-42.1391 -60.924,-46.9315 -38.3806,-7.2561 -76.878,5.9169 -97.4854,33.3576 -14.409,19.1868 -20.7999,40.5217 -20.8165,69.4923 -0.031,54.1228 27.0751,92.4849 72.3553,102.401 11.4714,2.5121 35.9943,2.5646 47.9768,0.1026 z m -1070.9129,77.9077 c -66.0695,-5.5114 -111.6929,-42.6961 -118.4858,-96.5703 -0.8449,-6.7007 -1.2244,4.4878 -1.3455,39.6667 l -0.1687,49 h -42.6075 -42.6075 l -0.4305,-107 c -0.4219,-104.8636 -0.4879,-107.2038 -3.3053,-117.2055 -7.339,-26.0542 -23.3577,-43.6607 -46.1904,-50.769 -12.1125,-3.7708 -34.3758,-3.993 -47.4302,-0.4734 -31.3033,8.4398 -52.0436,32.2927 -58.0557,66.7682 -1.7065,9.7861 -2.0395,27.7763 -2.0395,110.1877 V 1620 H 2256 2213.3333 v -172.6667 -172.6666 h 39.3334 c 21.6333,0 39.3708,0.15 39.4166,0.3333 0.046,0.1833 1.6958,10.1263 3.6666,22.0955 l 3.5834,21.7621 6.6667,-8.3737 c 19.8293,-24.9066 55.091,-42.2377 91.3333,-44.8902 30.1097,-2.2037 59.0182,2.8223 80.0665,13.9201 27.051,14.2629 48.3261,42.1044 56.7275,74.2362 5.5893,21.377 6.0579,27.9767 6.7862,95.5833 l 0.711,66 h 40.0957 40.0956 l 2.3528,9.3334 c 1.294,5.1333 2.3855,9.7238 2.4254,10.2012 0.04,0.4773 2.8085,4.5074 6.1524,8.9557 10.8098,14.3802 30.1483,21.0476 57.2536,19.7395 22.6957,-1.0953 37.5249,-6.5956 47.0593,-17.4546 6.8341,-7.7837 8.5838,-13.2986 7.9462,-25.0468 -0.6891,-12.6984 -4.5591,-19.0881 -16.0775,-26.5446 -6.5844,-4.2624 -11.6562,-5.9391 -34,-11.2404 -61.0191,-14.4773 -70.8161,-17.0562 -81.5947,-21.4791 -33.1683,-13.6104 -50.6454,-31.7439 -58.2751,-60.4643 -3.2754,-12.3291 -3.2781,-44.0667 -0,-55.9578 11.2935,-41.0274 47.0676,-68.694 100.9019,-78.0344 13.9631,-2.4226 44.8699,-2.7743 58.1906,-0.662 32.7057,5.1862 58.3091,17.3977 75.8958,36.1985 17.9613,19.2013 26.2596,37.2908 28.4224,61.9582 0.5433,6.1973 0.7112,11.5445 0.3731,11.8827 -0.3382,0.3382 -18.4533,0.6148 -40.2558,0.6148 h -39.6409 l -1.5414,-8.8515 c -2.0248,-11.6274 -6.3255,-19.8225 -14.3334,-27.3129 -10.0718,-9.4211 -19.0168,-12.3696 -37.7323,-12.4376 -11.6811,-0.042 -17.2146,0.5599 -23.2317,2.5286 -16.7,5.464 -26.3225,15.713 -28.7488,30.6203 -3.1601,19.4167 6.7657,33.7816 29.1735,42.2206 4.1105,1.5481 24.2737,6.6346 44.807,11.3033 61.0286,13.8763 78.4712,20.9364 96.5319,39.0727 15.9874,16.0542 22.0788,33.0658 22.0299,61.5232 -0.044,25.8784 -4.7289,41.1667 -18.6176,60.7606 -21.0286,29.6667 -57.73,47.0444 -108.186,51.2249 -17.4306,1.4442 -19.5174,1.4397 -37.7582,-0.082 z M 4166,1627.808 c -56.3033,-3.626 -108.6474,-39.8146 -135.6861,-93.808 -23.66,-47.2465 -29.1891,-109.828 -13.7632,-155.7808 13.857,-41.2793 42.9936,-74.8481 81.6033,-94.0168 17.9677,-8.9204 43.0032,-16.6034 63.4278,-19.4649 9.8905,-1.3857 40.1548,-1.0189 49.3614,0.5983 39.1348,6.8741 70.3748,24.9538 94.0721,54.4429 21.4574,26.7018 32.4302,51.2972 42.1722,94.5291 2.7568,12.2334 2.8541,13.7039 0.9433,14.2501 -3.9471,1.1282 -247.7145,58.1088 -248.5939,58.1088 -3.1437,0 4.6236,19.7091 12.6792,32.1725 22.2109,34.3647 55.9735,46.1068 100.812,35.061 39.2157,-9.6608 64.7756,-31.6446 69.7515,-59.9925 l 1.4204,-8.0923 36.9,-8.383 c 20.295,-4.6107 37.4847,-8.4692 38.1994,-8.5744 2.0641,-0.3039 0.7762,23.8127 -1.9479,36.4753 -10.0408,46.6729 -44.177,85.013 -93.9316,105.4994 -32.8689,13.5337 -64.7093,19.0819 -97.4199,16.9753 z m 5.2142,-213.223 c 44.7988,-10.3115 82.1634,-18.9777 83.0324,-19.2582 2.1849,-0.7051 0.088,-8.0794 -5.833,-20.5119 -5.7385,-12.0494 -18.6553,-25.4923 -30.5377,-31.7816 -26.41,-13.9785 -68.5234,-10.0607 -96.5675,8.9836 -15.0573,10.2253 -26.5476,26.4582 -31.5433,44.5627 -2.7373,9.9204 -4.0143,36.7537 -1.7491,36.7537 0.9601,0 38.3993,-8.4367 83.1982,-18.7483 z m -3401.50202,204.48 c -4.40997,-0.8536 -9.43878,-7.6648 -10.40216,-14.0891 -0.46831,-3.1229 -0.65465,-20.97 -0.41408,-39.6603 0.42536,-33.0472 0.52238,-34.1014 3.52592,-38.3124 1.69869,-2.3816 4.69869,-4.7816 6.66666,-5.3333 1.96798,-0.5518 131.48417,-1.0032 287.81378,-1.0032 h 284.2356 l 3.7644,2.794 c 6.6455,4.9324 7.2895,9.5879 6.8399,49.4446 -0.3878,34.3674 -0.5532,36.4329 -3.2041,40 -1.5373,2.0688 -4.2373,4.5025 -6,5.4084 -2.5167,1.2934 -64.0333,1.6122 -286.5381,1.4851 -155.83333,-0.089 -284.66285,-0.4193 -286.28782,-0.7338 z M 1540,1619.3737 c 0,-0.437 -142.4547,-477.9152 -151.4733,-507.707 -0.6634,-2.1913 2.1399,-2.3334 46.0501,-2.3334 25.7161,0 46.7565,0.2713 46.7565,0.6029 0,0.3316 18.3564,61.9816 40.7919,137 39.6071,132.4357 51.388,174.9429 59.2355,213.7305 2.0772,10.2666 3.8207,18.2674 3.8746,17.7794 0.054,-0.4879 2.4767,-12.511 5.384,-26.7179 5.7223,-27.9627 9.9681,-42.7654 63.7882,-222.3949 L 1690.1618,1110 l 49.5858,-0.3496 c 27.2721,-0.1922 49.5857,-0.089 49.5857,0.2305 0,0.319 17.7503,61.0763 39.4451,135.0162 33.7377,114.9845 55.4826,194.322 62.0619,226.4362 0.9187,4.4845 1.8731,6.8282 2.1717,5.3334 5.5451,-27.7546 12.6504,-57.9478 17.8848,-76 5.4526,-18.8049 82.1809,-273.0887 86.6001,-287 l 1.3766,-4.3334 h 45.2299 c 24.8765,0 45.2225,0.45 45.2134,1 -0.01,0.55 -34.7131,115.3 -77.12,255 l -77.1034,254 -43.3564,0.3513 -43.3564,0.3514 -8.5991,-29.018 c -4.7295,-15.9599 -29.2651,-99.3223 -54.5236,-185.2497 -25.2585,-85.9274 -46.3051,-155.5274 -46.7701,-154.6666 -0.4651,0.8607 -24.0602,79.265 -52.4336,174.2316 C 1657.6808,1520.3 1632.975,1602.95 1631.1524,1609 l -3.3138,11 h -43.9193 c -24.1556,0 -43.9193,-0.2818 -43.9193,-0.6263 z m 552,-172.0404 v -172.6666 h 42.6667 42.6666 V 1447.3333 1620 H 2134.6667 2092 Z m 746.6667,0 V 1274.6667 H 2881.3333 2924 V 1447.3333 1620 h -42.6667 -42.6666 z m 121.3333,0 v -172.6666 h 39.3333 c 21.6334,0 39.3334,0.3833 39.3334,0.8518 0,1.273 5.2535,32.6636 6.0684,36.26 l 0.7052,3.1118 2.8291,-3.7785 c 8.8491,-11.8185 27.1809,-27.4845 39.323,-33.6047 8.1246,-4.0952 24.7567,-9.2984 34.9207,-10.9246 14.1459,-2.2632 40.4192,-1.6318 54.5233,1.3105 28.9991,6.0495 54.6097,24.6461 71.3624,51.8182 l 5.8431,9.4772 2.3423,-4.9275 c 12.0136,-25.2727 41.2458,-47.4773 72.9816,-55.4363 29.1747,-7.3167 73.5796,-3.4513 99.1523,8.6312 13.0963,6.1877 28.6701,18.5587 38.0894,30.2562 9.6314,11.9609 18.7714,30.0501 22.3777,44.288 5.0907,20.0986 5.4738,30.6604 5.4777,151 l 0,117 H 3452 3409.3333 l -0.023,-109 c -0.019,-88.7273 -0.3734,-110.6523 -1.9061,-117.8841 -7.9204,-37.3697 -41.8453,-58.1104 -81.4041,-49.768 -20.9502,4.4181 -37.4815,17.0971 -46.6885,35.8087 -9.1591,18.6143 -9.0028,16.429 -9.6193,134.5101 L 3269.1371,1620 h -41.9019 -41.9019 v -105.8253 c 0,-116.0664 -0.2679,-120.7636 -7.8277,-137.2467 -10.2228,-22.2893 -31.1597,-34.8104 -58.1723,-34.7892 -36.031,0.028 -60.3289,18.3067 -70.8313,53.2839 -2.1765,7.2484 -2.4129,16.9799 -2.8237,116.244 L 3045.2299,1620 H 3002.615 2960 Z M 3906.6667,1360 V 1100 H 3949.3333 3992 v 260 260 h -42.6667 -42.6666 z M 767.9429,1499.9226 c -1.86474,-0.7117 -4.56474,-3.2354 -6,-5.6083 -2.42857,-4.0151 -2.60957,-6.9499 -2.60957,-42.3143 0,-35.2975 0.18464,-38.3052 2.59611,-42.2915 1.42786,-2.3604 3.52786,-4.7558 4.66667,-5.3231 1.13881,-0.5674 29.69818,-1.3362 63.46528,-1.7085 56.22397,-0.6199 61.70338,-0.8793 65.05952,-3.08 2.01563,-1.3217 4.2842,-4.0217 5.04127,-6 2.55299,-6.6712 -0.67499,-12.5244 -18.3517,-33.2762 -9.20785,-10.8097 -19.77155,-23.254 -23.47487,-27.654 -3.70333,-4.4 -10.18095,-11.9 -14.39472,-16.6667 -28.3502,-32.0701 -34.49706,-40.4346 -34.57827,-47.0531 -0.0621,-5.0631 6.16166,-13.9469 25.58372,-36.5179 22.17314,-25.7681 25.7965,-28.5131 33.38699,-25.2933 2.38334,1.011 6.00512,3.7383 8.04842,6.0607 2.04329,2.3224 20.55314,23.8533 41.133,47.8464 20.57986,23.9931 39.9926,46.6239 43.13942,50.2905 34.28191,39.9452 36.52947,42.01 43.73643,40.1797 7.1332,-1.8115 6.8898,1.9482 7.6094,-117.513 0.6239,-103.5701 0.8223,-110.9794 3.0935,-115.5437 3.9023,-7.8418 6.8844,-8.4563 41.0396,-8.4563 33.1541,0 35.5492,0.4804 39.6473,7.9529 2.0045,3.655 2.2842,14.7931 2.8863,114.9504 0.6615,110.0433 0.6883,110.9324 3.4652,114.6666 5.3946,7.2546 13.9944,5.0316 22.7572,-5.8825 6.6725,-8.3106 32.9705,-39.3042 45.5537,-53.6874 5.4532,-6.2333 11.1845,-12.8351 12.7361,-14.6707 25.8173,-30.5417 51.4694,-60.0861 54.5963,-62.8802 10.5272,-9.4074 13.8526,-6.9929 51.5581,37.4353 12.2182,14.3966 14.2944,20.6418 9.6667,29.077 -2.1721,3.9594 -35.1664,43.4453 -52.1176,62.3719 -6.7427,7.5285 -26.2829,30.6614 -30.792,36.4536 -3.2191,4.1352 -4.6757,7.5643 -5.1033,12.014 -0.7484,7.789 2.1248,11.816 9.6796,13.5664 2.9333,0.6797 30.7026,1.2501 61.7095,1.2676 44.8011,0.025 57.2783,0.4087 60.7703,1.8678 7.6842,3.2107 8.1868,6.2083 8.1868,48.8306 0,34.3849 -0.2281,38.336 -2.3983,41.5319 -4.4969,6.6222 -5.3112,6.6893 -74.4334,6.1343 -64.4796,-0.5177 -64.5061,-0.5191 -77.8349,-4.005 -34.3588,-8.9859 -56.7172,-22.6305 -87.3334,-53.2968 -7.7,-7.7126 -17,-15.9213 -20.6666,-18.2415 -20.4623,-12.9482 -47.8645,-12.4954 -68.1999,1.127 -4.2901,2.8739 -13.2001,10.77 -19.8001,17.5469 -13.55891,13.9224 -24.78328,23.5939 -34.90199,30.0734 -10.17088,6.5129 -29.20316,15.7918 -39.09804,19.0616 -21.36854,7.0614 -21.84512,7.101 -90.66667,7.5395 -39.64276,0.2525 -65.97865,-0.089 -68.0571,-0.882 z M 2126.042,1205.0479 c -19.3721,-2.4946 -35.9794,-16.7256 -41.4674,-35.5341 -3.1877,-10.925 -2.1448,-26.5281 2.4424,-36.5381 4.2187,-9.2061 15.0756,-20.3847 24.0625,-24.7756 14.0938,-6.8861 31.8964,-6.8948 45.6574,-0.022 7.6789,3.835 20.4909,17.2414 24.6772,25.8221 2.7876,5.7136 3.2526,8.5757 3.2526,20.0205 0,12.3301 -0.3269,14.0167 -4.2641,22 -10.361,21.0089 -31.0087,32.0343 -54.3606,29.0274 z m 746.6666,0 c -19.372,-2.4946 -35.9793,-16.7256 -41.4673,-35.5341 -3.1878,-10.925 -2.1448,-26.5281 2.4424,-36.5381 4.2186,-9.2061 15.0755,-20.3847 24.0624,-24.7756 14.0939,-6.8861 31.8965,-6.8948 45.6575,-0.022 7.6789,3.835 20.4909,17.2414 24.6772,25.8221 2.7876,5.7136 3.2525,8.5757 3.2525,20.0205 0,12.3301 -0.3269,14.0167 -4.264,22 -10.361,21.0089 -31.0087,32.0343 -54.3607,29.0274 z"
       id="path1" />
  </g>
</svg>
